<?xml version="1.0" encoding="utf-8"?>
<!-- Generator: Adobe Illustrator 16.0.0, SVG Export Plug-In . SVG Version: 6.00 Build 0)  -->
<svg version="1.2" baseProfile="tiny" id="Layer_1" xmlns="http://www.w3.org/2000/svg" xmlns:xlink="http://www.w3.org/1999/xlink"
	 x="0px" y="0px" width="566.931px" height="283.467px" viewBox="0 0 566.931 283.467" xml:space="preserve">
<path fill-rule="evenodd" fill="#4b2026" d="M330.015,30.035c1.588,0.118,3.138,0.236,4.637,0.358
	c1.417,0.114,2.971,0.249,4.685,0.402c0.093-0.088,0.193-0.181,0.299-0.273c0.229-0.204,0.462-0.397,0.701-0.589
	c1.468-1.172,3.121-1.883,4.853-2.223c1.609-0.317,3.285-0.311,4.948-0.06c0.378-1.52,0.965-2.968,1.793-4.272
	c0.902-1.418,2.094-2.663,3.619-3.641l0.004-0.002l2.137-1.368l0.193-0.124l0.234-0.015l2.537-0.162
	c1.371-0.086,2.738,0.087,4.066,0.459c1.247,0.351,2.459,0.88,3.614,1.536c1.188-0.738,2.467-1.338,3.807-1.817
	c1.631-0.582,3.342-0.981,5.088-1.232c2.726-0.392,5.426-0.246,7.765,0.781c2.056,0.901,3.815,2.466,5.053,4.918
	c0.946,1.87,1.275,3.832,1.09,5.745c-0.196,2.012-0.961,3.959-2.183,5.674l-0.244,0.33c-0.136,0.185-0.272,0.368-0.392,0.552
	c-0.359,0.553-0.694,1.085-1.004,1.597l-0.29,0.482c53.127,9.374,98.432,25.749,130.265,46.597
	c31.317,20.51,49.639,45.372,49.639,72.203c0,35.357-31.834,67.31-83.3,90.384c-51.246,22.976-122.022,37.191-200.165,37.191
	C126.938,283.467,0,226.337,0,155.892c0-28.477,20.639-54.735,55.548-75.929c35.325-21.444,85.315-37.729,143.303-45.869
	c-1.205-1.705-1.963-3.64-2.157-5.635c-0.187-1.913,0.144-3.876,1.089-5.747c1.239-2.453,2.999-4.018,5.053-4.919
	c2.34-1.027,5.041-1.171,7.766-0.78c1.746,0.251,3.459,0.65,5.089,1.232c1.34,0.479,2.618,1.079,3.806,1.817
	c1.154-0.656,2.369-1.185,3.615-1.536c1.328-0.373,2.694-0.546,4.066-0.459l2.539,0.162l0.227,0.015l0.198,0.126l2.136,1.368h0.004
	c1.527,0.978,2.716,2.221,3.62,3.641c0.83,1.304,1.416,2.751,1.793,4.272c1.553-0.234,3.121-0.254,4.634,0.003
	c1.555,0.265,3.053,0.819,4.415,1.728c1.954-0.114,3.945-0.221,5.971-0.317c1.931-0.093,3.901-0.177,5.901-0.254l0.051-0.067
	c1.238-1.616,2.656-2.717,4.183-3.409c1.367-0.619,2.813-0.905,4.287-0.939l-0.004-0.03v-0.003c-0.278-2.013-0.31-3.904,0.149-5.688
	c0.469-1.824,1.438-3.514,3.151-5.076c1.589-1.448,3.313-2.278,5.123-2.633c1.532-0.301,3.118-0.257,4.728,0.037
	c0.589-1.727,1.276-3.369,2.258-4.868c1.15-1.749,2.69-3.286,4.921-4.504c0.933-0.509,1.917-0.899,2.932-1.172
	c1.004-0.269,2.048-0.42,3.114-0.45v0L293.628,0h0.049l0.275,0.002c1.127,0.002,2.243,0.142,3.323,0.416
	c1.079,0.274,2.12,0.68,3.094,1.212c2.233,1.218,3.772,2.755,4.922,4.504c0.982,1.499,1.668,3.142,2.257,4.869
	c1.61-0.294,3.197-0.339,4.728-0.038c1.811,0.355,3.533,1.186,5.123,2.633c1.714,1.562,2.684,3.252,3.15,5.076
	c0.46,1.784,0.429,3.677,0.149,5.689v0.004l-0.003,0.028c1.474,0.036,2.92,0.32,4.287,0.939c1.526,0.691,2.945,1.793,4.183,3.409
	l0.367,0.479l0.044,0.057l0.019,0.033l0.303,0.521L330.015,30.035L330.015,30.035z M294.656,221.629l-4.342,13.316l-14.129-0.027
	l11.447,8.203l-4.393,13.299l11.417-8.247l11.415,8.247l-4.394-13.299l11.447-8.203l-14.129,0.027L294.656,221.629L294.656,221.629z
	 M239.556,225.754l-2.952,9.053l-9.608-0.017l7.784,5.578l-2.987,9.043l7.763-5.607l7.762,5.607l-2.987-9.043l7.784-5.578
	l-9.609,0.017L239.556,225.754L239.556,225.754z M348.275,225.754l-2.951,9.053l-9.607-0.017l7.784,5.578l-2.986,9.043l7.761-5.607
	l7.763,5.607l-2.988-9.043l7.786-5.578l-9.608,0.017L348.275,225.754L348.275,225.754z M361.009,201.077h-0.035
	c-0.06,0.163-0.206,0.288-0.444,0.379c-0.237,0.094-0.458,0.168-0.669,0.226l-0.869,0.222c-0.52,0.138-0.916,0.351-1.181,0.637
	c-0.268,0.287-0.4,0.707-0.4,1.257c0,0.55,0.131,0.987,0.391,1.308c0.261,0.321,0.619,0.48,1.069,0.48
	c0.636,0,1.153-0.223,1.547-0.67c0.394-0.447,0.591-1.083,0.591-1.911V201.077L361.009,201.077z M356.595,199.823h1.041
	c0-0.666,0.141-1.176,0.417-1.534c0.278-0.354,0.731-0.532,1.357-0.532c0.485,0,0.875,0.116,1.162,0.353
	c0.29,0.236,0.437,0.646,0.437,1.232c0,0.263-0.012,0.476-0.035,0.644c-0.023,0.166-0.068,0.302-0.131,0.404
	c-0.064,0.104-0.153,0.183-0.271,0.241c-0.114,0.058-0.264,0.108-0.451,0.155l-1.964,0.551c-0.66,0.185-1.136,0.495-1.425,0.938
	c-0.29,0.442-0.434,0.973-0.434,1.591c0,0.793,0.188,1.42,0.564,1.886c0.376,0.465,0.97,0.697,1.781,0.697
	c0.256,0,0.503-0.022,0.748-0.069c0.242-0.045,0.468-0.128,0.679-0.25c0.207-0.119,0.392-0.281,0.553-0.483
	c0.163-0.2,0.297-0.449,0.402-0.747h0.033v0.309c0,0.472,0.122,0.778,0.367,0.921c0.242,0.144,0.566,0.216,0.973,0.216
	c0.126,0,0.29-0.034,0.485-0.104v-0.757h-0.295c-0.358,0-0.54-0.252-0.54-0.757v-5.404c0-0.723-0.194-1.309-0.588-1.754
	c-0.396-0.449-1.068-0.671-2.017-0.671c-0.985,0-1.707,0.251-2.166,0.756C356.822,198.158,356.595,198.882,356.595,199.823
	L356.595,199.823z M351.57,193.952v1.757h1.043v-1.757H351.57L351.57,193.952z M351.57,197.103v9.861
	c0,0.323-0.024,0.583-0.076,0.785c-0.052,0.2-0.126,0.36-0.218,0.482c-0.093,0.119-0.207,0.202-0.348,0.247
	c-0.139,0.047-0.3,0.069-0.485,0.069c-0.082,0-0.153-0.005-0.218-0.016c-0.063-0.01-0.124-0.025-0.184-0.034v0.861
	c0.174,0.033,0.367,0.05,0.574,0.05c0.278,0,0.54-0.036,0.783-0.111c0.242-0.074,0.454-0.192,0.632-0.354
	c0.18-0.16,0.323-0.374,0.429-0.644c0.101-0.271,0.155-0.6,0.155-0.99v-10.208H351.57L351.57,197.103z M347.886,203.213h-1.042
	c-0.185,1.582-0.824,2.374-1.913,2.374c-0.243,0-0.482-0.043-0.719-0.128c-0.239-0.086-0.449-0.263-0.626-0.533
	c-0.18-0.269-0.328-0.664-0.444-1.181c-0.116-0.517-0.172-1.204-0.172-2.063c0-0.804,0.055-1.46,0.164-1.97
	c0.111-0.514,0.256-0.913,0.443-1.206c0.185-0.292,0.405-0.492,0.66-0.593c0.256-0.105,0.522-0.155,0.802-0.155
	c0.555,0,0.981,0.163,1.276,0.49c0.294,0.327,0.472,0.852,0.53,1.576h1.042c-0.057-0.941-0.329-1.665-0.816-2.169
	c-0.486-0.504-1.166-0.756-2.033-0.756c-1.021,0-1.806,0.393-2.355,1.177c-0.552,0.786-0.827,1.981-0.827,3.588
	c0,0.861,0.07,1.597,0.209,2.203c0.139,0.609,0.341,1.104,0.607,1.48c0.268,0.378,0.592,0.657,0.976,0.835
	c0.381,0.177,0.816,0.267,1.302,0.267c0.868,0,1.556-0.294,2.061-0.886C347.513,204.97,347.804,204.188,347.886,203.213
	L347.886,203.213z M337.075,201.077h-0.035c-0.059,0.163-0.206,0.288-0.445,0.379c-0.237,0.094-0.46,0.168-0.667,0.226l-0.869,0.222
	c-0.522,0.138-0.916,0.351-1.183,0.637c-0.267,0.287-0.398,0.707-0.398,1.257c0,0.55,0.128,0.987,0.391,1.308
	c0.259,0.321,0.617,0.48,1.069,0.48c0.636,0,1.153-0.223,1.547-0.67c0.392-0.447,0.59-1.083,0.59-1.911V201.077L337.075,201.077z
	 M332.662,199.823h1.041c0-0.666,0.139-1.176,0.417-1.534c0.278-0.354,0.731-0.532,1.357-0.532c0.486,0,0.873,0.116,1.163,0.353
	s0.435,0.646,0.435,1.232c0,0.263-0.011,0.476-0.035,0.644c-0.024,0.166-0.066,0.302-0.13,0.404
	c-0.065,0.104-0.153,0.183-0.271,0.241c-0.115,0.058-0.266,0.108-0.452,0.155l-1.963,0.551c-0.66,0.185-1.136,0.495-1.425,0.938
	c-0.29,0.442-0.435,0.973-0.435,1.591c0,0.793,0.188,1.42,0.566,1.886c0.376,0.465,0.97,0.697,1.779,0.697
	c0.255,0,0.505-0.022,0.748-0.069c0.244-0.045,0.47-0.128,0.677-0.25c0.21-0.119,0.396-0.281,0.557-0.483
	c0.163-0.2,0.297-0.449,0.402-0.747h0.033v0.309c0,0.472,0.122,0.778,0.365,0.921c0.242,0.144,0.568,0.216,0.974,0.216
	c0.127,0,0.29-0.034,0.486-0.104v-0.757h-0.296c-0.359,0-0.539-0.252-0.539-0.757v-5.404c0-0.723-0.198-1.309-0.59-1.754
	c-0.394-0.449-1.067-0.671-2.015-0.671c-0.987,0-1.707,0.251-2.166,0.756C332.89,198.158,332.662,198.882,332.662,199.823
	L332.662,199.823z M325.936,197.103v9.139h1.042v-5.716c0-0.445,0.062-0.83,0.182-1.151c0.122-0.321,0.288-0.59,0.495-0.81
	c0.208-0.218,0.446-0.379,0.713-0.481c0.267-0.105,0.544-0.155,0.833-0.155c0.161,0,0.329,0.018,0.504,0.05v-1.032
	c-0.128-0.036-0.25-0.05-0.365-0.05c-0.557,0-1.034,0.143-1.433,0.431c-0.4,0.285-0.697,0.686-0.895,1.202h-0.035v-1.428H325.936
	L325.936,197.103z M316.131,197.103v6.903c0,0.858,0.218,1.481,0.653,1.867c0.434,0.384,1.004,0.576,1.713,0.576
	c0.485,0,0.935-0.119,1.346-0.354s0.75-0.61,1.017-1.125h0.035v1.271h0.938v-9.139h-1.042v6.146c0,0.72-0.188,1.293-0.566,1.711
	c-0.376,0.418-0.859,0.628-1.451,0.628c-0.557,0-0.961-0.15-1.218-0.454c-0.254-0.306-0.381-0.836-0.381-1.594v-6.437H316.131
	L316.131,197.103z M310.865,201.077h-0.035c-0.057,0.163-0.206,0.288-0.443,0.379c-0.239,0.094-0.46,0.168-0.669,0.226l-0.87,0.222
	c-0.521,0.138-0.916,0.351-1.182,0.637c-0.267,0.287-0.4,0.707-0.4,1.257c0,0.55,0.131,0.987,0.391,1.308
	c0.263,0.321,0.618,0.48,1.069,0.48c0.639,0,1.153-0.223,1.547-0.67c0.394-0.447,0.591-1.083,0.591-1.911V201.077L310.865,201.077z
	 M306.451,199.823h1.041c0-0.666,0.141-1.176,0.419-1.534c0.277-0.354,0.729-0.532,1.355-0.532c0.487,0,0.875,0.116,1.166,0.353
	c0.289,0.236,0.433,0.646,0.433,1.232c0,0.263-0.011,0.476-0.035,0.644c-0.022,0.166-0.066,0.302-0.131,0.404
	c-0.062,0.104-0.153,0.183-0.267,0.241c-0.117,0.058-0.268,0.108-0.453,0.155l-1.966,0.551c-0.66,0.185-1.136,0.495-1.425,0.938
	c-0.29,0.442-0.433,0.973-0.433,1.591c0,0.793,0.188,1.42,0.564,1.886s0.97,0.697,1.781,0.697c0.256,0,0.503-0.022,0.749-0.069
	c0.242-0.045,0.47-0.128,0.678-0.25c0.208-0.119,0.394-0.281,0.557-0.483c0.16-0.2,0.294-0.449,0.399-0.747h0.035v0.309
	c0,0.472,0.122,0.778,0.365,0.921c0.242,0.144,0.568,0.216,0.973,0.216c0.127,0,0.29-0.034,0.487-0.104v-0.757h-0.297
	c-0.357,0-0.536-0.252-0.536-0.757v-5.404c0-0.723-0.198-1.309-0.591-1.754c-0.394-0.449-1.066-0.671-2.017-0.671
	c-0.985,0-1.705,0.251-2.164,0.756C306.68,198.158,306.451,198.882,306.451,199.823L306.451,199.823z M300.749,197.964v6.781
	c0,0.607,0.148,1.027,0.444,1.256c0.294,0.229,0.797,0.344,1.502,0.344c0.359,0,0.603-0.034,0.731-0.104v-0.861
	c-0.234,0.068-0.446,0.104-0.644,0.104c-0.336,0-0.585-0.068-0.748-0.207c-0.161-0.136-0.242-0.39-0.242-0.756v-6.557h1.634v-0.862
	h-1.634v-2.531h-1.044v2.531h-1.269v0.862H300.749L300.749,197.964z M292.981,201.699l1.46,0.569c0.461,0.182,0.786,0.41,0.973,0.68
	c0.185,0.269,0.278,0.604,0.278,1.005c0,0.517-0.166,0.917-0.497,1.206c-0.329,0.285-0.772,0.429-1.329,0.429
	c-1.183,0-1.773-0.677-1.773-2.03v-0.241h-1.043v0.292c0,1.034,0.235,1.765,0.705,2.195c0.468,0.429,1.179,0.646,2.129,0.646
	c0.487,0,0.91-0.069,1.269-0.207c0.359-0.138,0.655-0.325,0.886-0.566c0.232-0.243,0.407-0.529,0.522-0.861
	c0.117-0.334,0.174-0.695,0.174-1.083c0-0.517-0.131-0.978-0.391-1.378c-0.262-0.401-0.705-0.717-1.33-0.946l-1.51-0.568
	c-0.522-0.196-0.862-0.419-1.019-0.672c-0.155-0.25-0.234-0.539-0.234-0.858c0-0.46,0.125-0.833,0.374-1.121
	c0.25-0.285,0.687-0.429,1.313-0.429c0.487,0,0.86,0.131,1.12,0.395c0.262,0.265,0.392,0.696,0.392,1.291v0.26h1.044v-0.26
	c0-0.836-0.206-1.469-0.619-1.901c-0.411-0.429-1.052-0.643-1.92-0.643c-0.394,0-0.759,0.047-1.095,0.146
	c-0.337,0.097-0.626,0.252-0.868,0.463c-0.245,0.213-0.435,0.485-0.574,0.817c-0.139,0.335-0.209,0.736-0.209,1.206
	c0,0.458,0.13,0.872,0.391,1.238C291.86,201.137,292.32,201.447,292.981,201.699L292.981,201.699z M286.688,200.855
	c-0.022-1.137-0.196-1.936-0.521-2.4c-0.325-0.466-0.807-0.697-1.442-0.697c-0.649,0-1.136,0.231-1.461,0.697
	c-0.324,0.465-0.492,1.264-0.503,2.4H286.688L286.688,200.855z M287.714,203.213h-1.044c-0.172,1.582-0.822,2.374-1.945,2.374
	c-0.255,0-0.5-0.053-0.738-0.163c-0.24-0.11-0.447-0.299-0.626-0.568c-0.18-0.27-0.324-0.625-0.436-1.067
	c-0.109-0.441-0.164-0.989-0.164-1.644v-0.429h5.041v-0.379c0-1.525-0.24-2.646-0.723-3.364c-0.479-0.717-1.23-1.076-2.249-1.076
	c-1.021,0-1.805,0.393-2.355,1.177c-0.551,0.786-0.826,1.981-0.826,3.588c0,0.861,0.069,1.597,0.209,2.203
	c0.138,0.609,0.342,1.104,0.607,1.48c0.267,0.378,0.591,0.657,0.974,0.835c0.382,0.177,0.816,0.267,1.303,0.267
	c0.869,0,1.562-0.294,2.078-0.886C287.335,204.97,287.634,204.188,287.714,203.213L287.714,203.213z M272.333,199.702h1.912
	c0.881,0,1.564-0.196,2.051-0.585c0.486-0.392,0.73-0.999,0.73-1.824c0-0.757-0.191-1.349-0.573-1.774
	c-0.383-0.423-1.078-0.634-2.085-0.634h-2.034V199.702L272.333,199.702z M271.22,193.952v12.29h1.113v-5.611h2.104
	c0.498,0,0.903,0.045,1.216,0.138c0.313,0.092,0.559,0.25,0.739,0.475c0.179,0.222,0.304,0.518,0.374,0.884
	c0.069,0.368,0.116,0.821,0.139,1.36l0.035,1.033c0.012,0.333,0.037,0.648,0.078,0.946c0.041,0.299,0.124,0.556,0.251,0.775h1.304
	c-0.221-0.241-0.359-0.518-0.417-0.834c-0.058-0.314-0.093-0.641-0.104-0.973l-0.036-1.342c-0.024-0.965-0.188-1.671-0.495-2.125
	s-0.849-0.716-1.625-0.783v-0.034c0.417-0.082,0.768-0.22,1.051-0.414c0.285-0.196,0.513-0.429,0.687-0.706
	c0.175-0.274,0.302-0.584,0.383-0.929c0.082-0.345,0.123-0.702,0.123-1.068c0-0.976-0.273-1.732-0.817-2.271
	c-0.544-0.539-1.345-0.811-2.399-0.811H271.22L271.22,193.952z M258.811,200.89h-3.771v0.93h3.771V200.89L258.811,200.89z
	 M241.483,193.952v12.29h1.042v-12.29H241.483L241.483,193.952z M236.581,200.855c-0.023-1.137-0.197-1.936-0.521-2.4
	c-0.324-0.466-0.806-0.697-1.442-0.697c-0.648,0-1.137,0.231-1.46,0.697c-0.324,0.465-0.493,1.264-0.504,2.4H236.581
	L236.581,200.855z M237.607,203.213h-1.042c-0.174,1.582-0.824,2.374-1.947,2.374c-0.255,0-0.501-0.053-0.74-0.163
	c-0.237-0.11-0.446-0.299-0.625-0.568c-0.179-0.27-0.324-0.625-0.434-1.067s-0.165-0.989-0.165-1.644v-0.429h5.04v-0.379
	c0-1.525-0.24-2.646-0.721-3.364s-1.232-1.076-2.251-1.076s-1.804,0.393-2.354,1.177c-0.55,0.786-0.826,1.981-0.826,3.588
	c0,0.861,0.07,1.597,0.209,2.203c0.139,0.609,0.342,1.104,0.608,1.48c0.266,0.378,0.59,0.657,0.973,0.835
	c0.382,0.177,0.816,0.267,1.303,0.267c0.869,0,1.562-0.294,2.077-0.886C237.228,204.97,237.526,204.188,237.607,203.213
	L237.607,203.213z M226.031,197.964v6.781c0,0.607,0.147,1.027,0.443,1.256c0.295,0.229,0.796,0.344,1.503,0.344
	c0.359,0,0.603-0.034,0.73-0.104v-0.861c-0.232,0.068-0.445,0.104-0.643,0.104c-0.336,0-0.586-0.068-0.748-0.207
	c-0.163-0.136-0.244-0.39-0.244-0.756v-6.557h1.634v-0.862h-1.634v-2.531h-1.042v2.531h-1.269v0.862H226.031L226.031,197.964z
	 M216.785,201.663c0,0.734,0.051,1.351,0.156,1.851c0.104,0.498,0.25,0.904,0.434,1.213c0.186,0.309,0.403,0.531,0.652,0.663
	c0.249,0.131,0.524,0.197,0.826,0.197c0.29,0,0.562-0.066,0.817-0.197c0.255-0.132,0.476-0.354,0.66-0.663
	c0.186-0.31,0.331-0.715,0.436-1.213c0.104-0.5,0.156-1.117,0.156-1.851c0-0.722-0.052-1.333-0.156-1.833
	c-0.105-0.498-0.25-0.903-0.436-1.212c-0.184-0.31-0.405-0.533-0.66-0.664c-0.255-0.131-0.527-0.197-0.817-0.197
	c-0.301,0-0.577,0.066-0.826,0.197s-0.466,0.354-0.652,0.664c-0.184,0.309-0.33,0.714-0.434,1.212
	C216.836,200.33,216.785,200.941,216.785,201.663L216.785,201.663z M215.672,201.663c0,1.618,0.275,2.82,0.826,3.606
	s1.335,1.179,2.355,1.179s1.805-0.393,2.355-1.179c0.551-0.786,0.826-1.989,0.826-3.606c0-1.607-0.275-2.802-0.826-3.588
	c-0.55-0.784-1.335-1.177-2.355-1.177s-1.805,0.393-2.355,1.177C215.948,198.861,215.672,200.056,215.672,201.663L215.672,201.663z
	 M210.979,200.116v6.126h1.113v-12.29h-1.113v5.233h-4.849v-5.233h-1.113v12.29h1.113v-6.126H210.979L210.979,200.116z
	 M208.464,29.301c4.905,7.541,6.735,13.181,8.424,19.616c2.514,0.35,4.611,0.686,5.732,4.331l0.085,0.285
	c7.552,0.716,13.459-2.708,21.037-3.113l-0.063,1.37c-7.288,0.433-12.632,3.848-20.487,3.869c0.346,2.073,0.389,4.793-1.251,6.43
	c0.511,5.855,1.593,11.462,2.769,17.063c46.062-7.17,92.364-7.304,138.432-0.095c1.166-5.57,2.243-11.147,2.75-16.968
	c-1.64-1.637-1.599-4.357-1.252-6.43c-7.855-0.021-13.198-3.436-20.488-3.869l-0.06-1.37c7.576,0.404,13.484,3.829,21.037,3.113
	l0.085-0.285c1.12-3.645,3.217-3.981,5.73-4.331c1.689-6.435,3.518-12.075,8.425-19.616c1.221-1.877,2.106-2.242-0.611-1.851
	c-10.57,1.521-5.918,8.921-9.716,8.99c-2.002,0.037-0.902-1.749-2.27-3.74c-1.365-1.99-4.182-4.188-5.436-4.108
	c-1.137,0.729-1.648,4.681-0.315,8.783c1.636,5.03,5.319,10.35,5.087,10.989c-0.263,0.729-0.902,1.385-2.453,1.181
	c-1.485-0.194-6.159-6.163-10.972-9.696c-2.352-1.726-5.179-2.089-5.663-1.705c-1.472,1.175,2.077,4.905,0.867,6.936
	c-0.139,0.234-2.233-0.15-4.601,0.29c-3.788,0.706-8.468,2.458-8.465,4.196c0.001,0.666,0.821,2.792,3.135,4.226
	c2.157,1.337,5.792,2.001,6.189,2.395c0.245,0.243-0.824,1.287-1.139,3.226c-0.199,1.233-0.184,3.425,0.234,3.991
	c0.268,0.363,3.456,0.961,6.632,0.443c3.486-0.57,7.146-1.962,8.951-4.014c0.71-0.806,4.682,2.284,4.372,2.9
	c-0.735,1.461-9.922,12.486-23.712,7.021c-4.405-1.746-6.351-9.406-7.839-8.735c-1.042,0.468-3.217,2.761-6.64,4.574
	c-3.157,1.671-7.168,2.64-9.011,2.73c-5.435,0.266-9.792-2.372-12.554-4.786c-4.892-4.27-6.233-10.979-3.119-12.053
	c1.375-0.474,4.47,3.917,8.658,6.311c3.004,1.719,7.722,3.431,9.346,2.335c2.191-1.479-1.901-4.659-0.884-5.658
	c0.732-0.719,6.11-1.951,8.143-2.898c1.234-0.575,4.587-2.228,3.527-4.386c-0.903-1.843-3.78-3.793-6.414-5.281
	c-2.325-1.313-4.771-1.822-5.063-2.335c-0.495-0.862,3.556-3.595,3.051-4.455c-1.113-1.455-11.122,5.11-16.876,6.66
	c-0.857,0.23-2.479,0.056-2.872-0.569c-0.479-0.768-0.19-1.58,0.24-2.243c1.851-2.844,4.862-4.546,6.722-7.479
	c1.332-2.1,1.677-4.392,2.252-8.555c0.245-1.768,0.373-1.873-1.302-1.41c-3.157,0.869-7.753,2.013-8.701,0.365
	c-2.464-4.282-2.305-11.33-6.218-11.338v-0.001l-0.013,0.001l-0.013-0.001v0.001c-3.913,0.008-3.753,7.056-6.217,11.338
	c-0.949,1.648-5.545,0.504-8.703-0.365c-1.675-0.463-1.546-0.358-1.301,1.41c0.577,4.163,0.922,6.456,2.252,8.555
	c1.861,2.933,4.872,4.635,6.723,7.479c0.429,0.663,0.72,1.475,0.241,2.243c-0.393,0.625-2.017,0.799-2.874,0.569
	c-5.753-1.55-15.762-8.114-16.878-6.66c-0.502,0.859,3.547,3.592,3.054,4.455c-0.293,0.513-2.74,1.022-5.063,2.335
	c-2.634,1.488-5.511,3.438-6.416,5.281c-1.058,2.158,2.293,3.811,3.529,4.386c2.032,0.948,7.409,2.179,8.141,2.898
	c1.019,0.999-3.076,4.179-0.884,5.658c1.626,1.095,6.342-0.617,9.347-2.335c4.188-2.394,7.284-6.785,8.658-6.311
	c3.114,1.074,1.774,7.783-3.119,12.053c-2.765,2.414-7.121,5.051-12.556,4.786c-1.842-0.09-5.851-1.059-9.008-2.73
	c-3.423-1.813-5.6-4.106-6.641-4.574c-1.49-0.671-3.435,6.989-7.841,8.735c-13.79,5.465-22.977-5.56-23.711-7.021
	c-0.31-0.616,3.662-3.706,4.372-2.9c1.805,2.051,5.464,3.443,8.951,4.014c3.176,0.518,6.364-0.08,6.632-0.443
	c0.417-0.566,0.434-2.757,0.234-3.991c-0.315-1.938-1.385-2.983-1.14-3.226c0.397-0.394,4.032-1.058,6.188-2.395
	c2.316-1.433,3.136-3.56,3.137-4.226c0.004-1.738-4.677-3.49-8.464-4.196c-2.367-0.44-4.463-0.056-4.603-0.29
	c-1.211-2.031,2.339-5.761,0.867-6.936c-0.482-0.384-3.31-0.021-5.662,1.705c-4.814,3.533-9.488,9.502-10.974,9.696
	c-1.551,0.204-2.188-0.452-2.453-1.181c-0.231-0.64,3.452-5.959,5.087-10.989c1.333-4.102,0.824-8.053-0.315-8.783
	c-1.253-0.079-4.07,2.118-5.437,4.108c-1.366,1.992-0.266,3.777-2.268,3.74c-3.796-0.068,0.855-7.469-9.716-8.99
	C206.356,27.059,207.243,27.424,208.464,29.301L208.464,29.301z M226.153,85.983c0.623,3.004,1.217,6.035,1.708,9.127
	c0.403,2.538,0.584,5.495-0.007,7.327c21.82-3.835,44.045-5,66.05-5h0.025c22.003,0,44.229,1.165,66.049,5
	c-0.591-1.832-0.411-4.789-0.008-7.327c0.505-3.177,1.117-6.29,1.757-9.374C316.624,79.554,271.234,79.652,226.153,85.983
	L226.153,85.983z M293.196,20.509l-0.182,20.596c-2.602,0.474-4.578,2.733-4.578,5.449c0,3.059,2.505,5.54,5.595,5.54
	c3.089,0,5.594-2.481,5.594-5.54c0-2.712-1.971-4.971-4.569-5.448l-0.06-20.598H293.196L293.196,20.509z M319.247,46.578
	c-6.074-0.883-12.149-1.2-18.223-1.052l-0.112,1.992c6.112-0.162,12.225,0.162,18.335,0.886V46.578L319.247,46.578z M268.585,46.578
	v1.825c6.111-0.724,12.222-1.048,18.334-0.886l-0.112-1.992C280.733,45.378,274.658,45.695,268.585,46.578L268.585,46.578z
	 M223.454,81.456c-1.292,0.205-0.911,2.936,2.053,2.517c45.622-6.44,91.3-6.533,136.924-0.239c2.45,0.338,3.131-2.187,1.809-2.397
	C317.317,73.837,270.394,73.981,223.454,81.456L223.454,81.456z M226.722,104.059c-1.291,0.206-0.9,2.133,2.053,1.655
	c45.62-7.393,85.678-7.297,131.299-0.049c2.44,0.387,3.128-1.325,1.811-1.536C314.96,96.632,273.661,96.586,226.722,104.059
	L226.722,104.059z M367.631,59.625c1.659,0.935,3.907-0.306,5.022-2.768c1.113-2.463,0.673-5.219-0.985-6.155
	c-1.658-0.936-3.907,0.305-5.022,2.767C365.533,55.932,365.972,58.688,367.631,59.625L367.631,59.625z M219.921,59.625
	c1.657-0.936,2.099-3.692,0.984-6.156c-1.114-2.462-3.363-3.703-5.02-2.767c-1.659,0.936-2.1,3.691-0.985,6.154
	C216.014,59.319,218.262,60.56,219.921,59.625L219.921,59.625z M294.022,42.223c-2.423,0-4.389,1.947-4.389,4.348
	c0,2.4,1.966,4.347,4.389,4.347c2.425,0,4.391-1.947,4.391-4.347C298.413,44.17,296.447,42.223,294.022,42.223L294.022,42.223z
	 M528.841,178.151c-0.683,0.451-1.211,0.749-1.582,0.889c-0.372,0.141-0.669,0.212-0.898,0.212c-0.057,0-0.098,0-0.128,0
	c-0.028,0-0.042,0-0.042,0c-0.342,0-0.614-0.101-0.813-0.298c-0.199-0.196-0.299-0.465-0.299-0.803c0-0.34,0.071-0.805,0.213-1.398
	c0.144-0.594,0.415-1.371,0.813-2.329c0.057-0.228,0.128-0.454,0.213-0.68s0.187-0.451,0.299-0.677c0-0.112,0.028-0.226,0.085-0.338
	c0.059-0.112,0.116-0.227,0.171-0.34c0.457-1.299,1.085-2.808,1.882-4.533c0.8-1.723,2.111-4.559,3.935-8.512
	c1.37-2.936,2.24-4.843,2.61-5.717c0.372-0.877,0.555-1.541,0.555-1.992c0,0,0-0.015,0-0.042c0-0.028,0-0.07,0-0.127
	c0-0.564-0.157-1.002-0.47-1.313c-0.313-0.311-0.726-0.465-1.24-0.465c-1.313,0-3.065,0.692-5.26,2.075
	c-2.195,1.382-4.492,3.205-6.888,5.463c-1.196,1.129-2.38,2.343-3.549,3.643c-1.169,1.298-2.295,2.655-3.378,4.065
	c1.425-3.444,2.481-6.283,3.165-8.513c0.685-2.229,1.027-3.827,1.027-4.786c0-0.623-0.157-1.102-0.472-1.44
	c-0.313-0.338-0.783-0.507-1.411-0.507c-2.053,0-4.633,1.27-7.742,3.812c-3.106,2.542-6.515,6.183-10.221,10.928
	c1.709-4.178,2.864-7.185,3.464-9.022c0.599-1.835,0.896-3.431,0.896-4.787c0-0.057,0-0.097,0-0.125c0-0.029,0-0.072,0-0.129
	c0-0.055,0-0.125,0-0.211c0-0.085,0-0.155,0-0.212c0-0.169-0.014-0.338-0.041-0.509c-0.028-0.169-0.071-0.395-0.13-0.678
	c-2.11,1.3-3.791,2.302-5.047,3.009c-1.254,0.706-2.423,1.312-3.508,1.821c-0.283,0.113-0.568,0.226-0.854,0.338
	c-0.285,0.113-0.569,0.226-0.854,0.34l0.512,1.354c0.628-0.282,1.126-0.479,1.497-0.592c0.372-0.113,0.699-0.169,0.984-0.169
	c0.4,0,0.713,0.099,0.942,0.296c0.226,0.198,0.342,0.494,0.342,0.89c0,0.057,0,0.099,0,0.127s0,0.07,0,0.127
	c-0.059,0.453-0.171,1.016-0.342,1.693c-0.172,0.68-0.485,1.61-0.942,2.797c-0.285,0.791-0.527,1.453-0.728,1.99
	c-0.198,0.537-0.413,1.061-0.639,1.568c0,0,0,0.014,0,0.042c0,0.027,0,0.042,0,0.042c-0.4,0.96-0.872,2.117-1.414,3.473
	c-0.541,1.356-1.553,3.784-3.037,7.285c-0.968,2.372-1.71,4.152-2.224,5.337c-0.512,1.187-0.941,2.173-1.283,2.966
	c0,0.111-0.028,0.211-0.085,0.296c-0.057,0.083-0.114,0.155-0.171,0.211c0,0.057-0.014,0.101-0.044,0.128
	c-0.027,0.028-0.042,0.069-0.042,0.125c0.285-0.113,0.541-0.211,0.769-0.296c0.229-0.086,0.457-0.184,0.685-0.296
	c0.057,0,0.1-0.016,0.128-0.042c0.028-0.03,0.071-0.042,0.129-0.042c0.171-0.056,0.328-0.112,0.47-0.17
	c0.143-0.057,0.299-0.113,0.47-0.169c1.027-0.34,1.669-0.565,1.925-0.676c0.256-0.114,0.441-0.171,0.557-0.171l0,0
	c0,0,0-0.028,0-0.084c0.055,0,0.114,0,0.171,0c0.059,0,0.114-0.028,0.171-0.084c0.4-1.017,0.87-2.105,1.411-3.262
	c0.542-1.157,1.099-2.329,1.67-3.514c0.341-0.678,0.669-1.33,0.983-1.95c0.312-0.62,0.641-1.242,0.984-1.863
	c0.454-0.848,0.897-1.652,1.326-2.415c0.427-0.761,0.84-1.481,1.24-2.158c0.685-1.074,1.382-2.121,2.096-3.135
	c0.713-1.016,1.47-1.977,2.267-2.881c1.484-1.864,2.923-3.402,4.321-4.617c1.396-1.215,2.436-1.821,3.122-1.821
	c0.342,0,0.612,0.114,0.813,0.34c0.198,0.226,0.297,0.507,0.297,0.845c0,0.509-0.142,1.258-0.427,2.246
	c-0.285,0.988-0.884,2.81-1.797,5.464c-0.342,1.017-0.642,1.935-0.898,2.753s-0.527,1.596-0.812,2.329
	c-0.057,0.169-0.114,0.326-0.172,0.467c-0.057,0.141-0.112,0.268-0.171,0.382c-0.512,1.413-1.096,2.964-1.754,4.659
	c-0.653,1.694-1.61,4.039-2.866,7.03c-0.341,0.792-0.557,1.314-0.641,1.569c-0.085,0.253-0.155,0.463-0.213,0.634
	c-0.057,0.114-0.114,0.239-0.171,0.382c-0.059,0.139-0.142,0.353-0.256,0.634c0.913-0.451,1.711-0.832,2.395-1.144
	c0.683-0.31,1.341-0.551,1.967-0.72c0.287-0.113,0.543-0.197,0.771-0.253c0.228-0.057,0.484-0.113,0.769-0.169
	c0.059-0.113,0.1-0.226,0.13-0.338c0.028-0.113,0.069-0.226,0.126-0.34c1.313-3.841,2.996-7.581,5.049-11.224
	c2.053-3.644,4.191-6.679,6.417-9.107c0.342-0.395,0.698-0.761,1.068-1.1c0.37-0.341,0.726-0.68,1.069-1.018
	c1.254-1.187,2.453-2.189,3.593-3.006c1.141-0.821,1.938-1.229,2.395-1.229c0.229,0,0.427,0.099,0.598,0.298
	c0.171,0.199,0.259,0.437,0.259,0.718c0,0.113-0.03,0.255-0.088,0.424c-0.056,0.169-0.141,0.368-0.256,0.594
	c-1.197,2.428-2.195,4.504-2.993,6.225c-0.798,1.724-1.512,3.346-2.14,4.872c-0.114,0.338-0.242,0.678-0.385,1.018
	c-0.142,0.338-0.272,0.676-0.384,1.015c-0.229,0.507-0.441,1.03-0.642,1.566c-0.199,0.539-0.413,1.117-0.642,1.739
	c-0.512,1.356-0.913,2.542-1.197,3.558c-0.285,1.017-0.541,2.005-0.771,2.964c-0.112,0.734-0.213,1.467-0.299,2.204
	c-0.085,0.734-0.156,1.553-0.213,2.456c0.512-0.169,0.998-0.338,1.455-0.507c0.456-0.169,0.913-0.338,1.367-0.509
	c0.913-0.338,1.741-0.678,2.481-1.017c0.742-0.338,1.484-0.733,2.224-1.187c0.512-0.282,1.012-0.578,1.496-0.89
	c0.485-0.31,0.987-0.632,1.5-0.972L528.841,178.151L528.841,178.151z M485.985,166.036c-1.311,3.22-2.896,6.042-4.748,8.472
	c-1.854,2.427-3.78,4.234-5.775,5.42c-0.799,0.453-1.583,0.806-2.354,1.06c-0.77,0.254-1.524,0.38-2.267,0.38
	c-1.14,0-2.026-0.368-2.651-1.101c-0.628-0.734-0.942-1.779-0.942-3.135c0-1.411,0.201-2.95,0.599-4.616
	c0.399-1.667,0.968-3.345,1.711-5.04c0.569-1.413,1.254-2.797,2.053-4.15c0.797-1.356,1.681-2.656,2.651-3.899
	c0.799-1.016,1.64-1.935,2.524-2.753s1.782-1.509,2.695-2.075c0.854-0.565,1.724-1.002,2.61-1.314
	c0.883-0.308,1.724-0.465,2.523-0.465s1.425,0.168,1.882,0.509c0.457,0.338,0.683,0.817,0.683,1.439c0,0.058,0,0.128,0,0.213
	c0,0.084,0,0.155,0,0.211c-0.226,1.695-1.439,3.262-3.635,4.701c-2.195,1.441-4.576,2.218-7.145,2.33c-0.114,0-0.212,0-0.297,0
	s-0.158,0-0.215,0c-0.057,0-0.1,0-0.13,0c-0.027,0-0.071,0-0.126,0c-0.342,0-0.699-0.015-1.069-0.042
	c-0.372-0.03-0.87-0.07-1.496-0.127c0.285,0.733,0.641,1.272,1.069,1.61c0.427,0.338,0.984,0.508,1.667,0.508
	c0.628,0,1.441-0.142,2.439-0.423c0.997-0.283,2.039-0.651,3.122-1.102c0.799-0.282,1.582-0.62,2.352-1.017
	c0.769-0.395,1.469-0.791,2.096-1.186c0.855-0.564,1.668-1.2,2.438-1.906c0.77-0.707,1.441-1.427,2.01-2.163
	c0.628-0.79,1.113-1.566,1.455-2.327c0.342-0.765,0.512-1.428,0.512-1.992c0-0.79-0.285-1.385-0.854-1.779
	c-0.572-0.395-1.37-0.592-2.396-0.592c-1.254,0-2.651,0.253-4.191,0.763c-1.541,0.507-3.138,1.185-4.791,2.034
	c-0.913,0.504-1.825,1.071-2.736,1.693c-0.913,0.62-1.797,1.27-2.652,1.948c-2.396,1.978-4.506,4.277-6.33,6.903
	c-1.827,2.626-3.252,5.323-4.278,8.091c-0.513,1.411-0.913,2.81-1.197,4.193c-0.286,1.384-0.427,2.725-0.427,4.024
	c0,1.694,0.441,3.021,1.326,3.981c0.884,0.96,2.067,1.44,3.549,1.44c1.654,0,3.593-0.565,5.819-1.696
	c2.224-1.127,4.59-2.822,7.099-5.082c0.569-0.453,1.099-0.917,1.583-1.397c0.486-0.48,0.954-0.974,1.411-1.483
	c1.083-1.298,1.925-2.556,2.524-3.77c0.598-1.213,0.898-2.302,0.898-3.262c0-0.113,0-0.226,0-0.338s-0.029-0.226-0.085-0.338
	c0-0.171-0.044-0.37-0.13-0.594C486.283,166.571,486.156,166.318,485.985,166.036L485.985,166.036z M458.781,178.489
	c-1.141,0.564-1.996,0.975-2.567,1.228c-0.569,0.254-1.082,0.382-1.539,0.382c-0.228,0-0.441-0.1-0.643-0.297
	c-0.199-0.197-0.299-0.409-0.299-0.636c0-0.508,0.199-1.369,0.6-2.583c0.398-1.215,1.055-2.867,1.968-4.956
	c0.228-0.508,0.528-1.184,0.896-2.033c0.372-0.849,0.756-1.723,1.155-2.626c0.342-0.847,0.687-1.667,1.028-2.457
	c0.342-0.791,0.628-1.441,0.854-1.948l0.857-1.864l0.939-1.864l0.856-1.948c0.057-0.113,0.1-0.213,0.128-0.298
	c0.03-0.084,0.071-0.153,0.13-0.213c0-0.111,0.013-0.21,0.041-0.294c0.03-0.084,0.071-0.155,0.13-0.213
	c0.398-0.902,0.669-1.638,0.813-2.202c0.142-0.564,0.212-1.046,0.212-1.441c0-0.678-0.171-1.184-0.513-1.524
	s-0.827-0.509-1.454-0.509c-1.085,0-2.325,0.382-3.722,1.145c-1.396,0.763-3.179,2.019-5.346,3.77
	c-0.343,0.282-0.685,0.564-1.027,0.847c-0.341,0.282-0.687,0.565-1.028,0.847c-0.226,0.226-0.468,0.451-0.726,0.677
	s-0.528,0.452-0.812,0.677c-1.314,1.299-2.768,2.853-4.364,4.66c-1.598,1.807-3.793,4.434-6.587,7.878
	c0.057-0.169,0.101-0.283,0.128-0.34c0.028-0.055,0.073-0.111,0.128-0.169c0.057-0.113,0.299-0.677,0.728-1.693
	c0.429-1.016,1.783-4.265,4.063-9.742c0.628-1.525,1.341-3.234,2.139-5.124c0.798-1.892,1.654-3.968,2.567-6.227
	c2.167-5.367,3.665-9.391,4.49-12.072c0.827-2.684,1.24-4.873,1.24-6.565c0-0.114,0-0.269,0-0.466s-0.027-0.409-0.084-0.636
	c-1.37,0.735-2.554,1.341-3.551,1.822c-0.998,0.479-1.952,0.917-2.866,1.313c-0.456,0.225-0.898,0.409-1.325,0.55
	c-0.427,0.142-0.872,0.298-1.326,0.466c-0.286,0.113-0.571,0.212-0.855,0.297c-0.286,0.084-0.571,0.183-0.856,0.297l0.427,1.27
	c0.97-0.339,1.653-0.564,2.053-0.678c0.398-0.114,0.742-0.169,1.026-0.169c0.457,0,0.786,0.126,0.984,0.381
	c0.199,0.254,0.3,0.607,0.3,1.059c0,0.058,0,0.127,0,0.212s0,0.154,0,0.212c-0.059,0.564-0.187,1.227-0.386,1.99
	c-0.198,0.763-0.669,2.104-1.411,4.025c-0.286,0.733-0.5,1.313-0.642,1.735c-0.142,0.423-0.299,0.833-0.47,1.229
	c-0.229,0.565-0.5,1.242-0.813,2.034c-0.314,0.79-0.813,2.087-1.496,3.896c-1.142,2.709-1.912,4.588-2.311,5.631
	c-0.398,1.046-0.742,1.908-1.026,2.585c-0.286,0.676-0.628,1.525-1.026,2.542c-0.4,1.017-1.141,2.88-2.224,5.591
	c-0.969,2.427-1.754,4.403-2.354,5.931c-0.598,1.524-1.181,2.936-1.752,4.236c0,0.057-0.014,0.125-0.044,0.21
	c-0.027,0.084-0.071,0.157-0.127,0.213c-0.4,1.015-0.827,2.089-1.284,3.218c-0.454,1.129-1.026,2.486-1.71,4.067
	c0.342-0.169,0.669-0.324,0.984-0.467c0.313-0.141,0.612-0.27,0.897-0.38c0.514-0.171,1.055-0.324,1.626-0.467
	c0.571-0.141,1.199-0.24,1.882-0.296c0.628-1.469,1.454-3.079,2.48-4.828c1.026-1.752,2.168-3.556,3.423-5.423
	c0.855-1.299,1.754-2.583,2.693-3.852c0.943-1.271,1.898-2.5,2.866-3.687c0.057-0.056,0.129-0.127,0.215-0.213
	c0.085-0.083,0.157-0.182,0.213-0.294c0.456-0.565,0.913-1.103,1.368-1.61c0.456-0.509,0.941-1.018,1.454-1.525
	c1.654-1.75,3.238-3.192,4.748-4.321c1.512-1.129,2.61-1.694,3.293-1.694c0.286,0,0.514,0.099,0.685,0.297
	c0.171,0.198,0.256,0.521,0.256,0.974c0,0.337-0.098,0.819-0.297,1.439c-0.201,0.623-0.528,1.413-0.984,2.373
	c-3.138,6.719-5.392,11.916-6.758,15.588c-1.37,3.669-2.14,6.635-2.311,8.894c1.769-0.564,3.25-1.071,4.449-1.525
	c1.197-0.451,2.254-0.874,3.165-1.27c0.342-0.169,0.683-0.324,1.026-0.465c0.343-0.142,0.655-0.298,0.941-0.467
	c0.341-0.169,0.697-0.338,1.069-0.507c0.37-0.171,0.728-0.368,1.069-0.595L458.781,178.489L458.781,178.489z M434.23,149.603
	c-0.343-0.057-0.656-0.084-0.943-0.084c-0.283,0-0.542,0-0.769,0c-1.598,0-3.238,0.238-4.919,0.72
	c-1.683,0.479-3.38,1.143-5.091,1.989c-1.197,0.678-2.395,1.441-3.592,2.288c-1.196,0.848-2.395,1.807-3.592,2.882
	c-1.882,1.693-3.563,3.458-5.049,5.293c-1.482,1.835-2.736,3.713-3.763,5.633c-0.971,1.75-1.71,3.516-2.224,5.296
	c-0.514,1.778-0.771,3.458-0.771,5.04c0,1.977,0.486,3.488,1.455,4.532c0.97,1.045,2.338,1.568,4.106,1.568
	c1.882,0,3.936-0.523,6.158-1.568c2.225-1.044,4.506-2.555,6.844-4.532c2.168-1.864,3.835-3.671,5.004-5.421
	c1.169-1.751,1.756-3.276,1.756-4.574c0-0.169-0.016-0.34-0.044-0.509c-0.028-0.169-0.071-0.31-0.128-0.423
	c0-0.113-0.029-0.226-0.085-0.338c-0.057-0.113-0.143-0.228-0.258-0.338c-0.056,0.167-0.114,0.31-0.171,0.423
	c-0.056,0.113-0.114,0.197-0.171,0.253c-2.281,4.46-4.648,7.78-7.099,9.954c-2.455,2.173-5.049,3.26-7.785,3.26
	c-1.313,0-2.339-0.408-3.081-1.228c-0.742-0.817-1.11-1.934-1.11-3.345c0-1.525,0.313-3.276,0.94-5.253
	c0.628-1.976,1.482-4.011,2.567-6.1c0.571-1.073,1.197-2.131,1.882-3.177c0.683-1.044,1.396-2.076,2.138-3.091
	c1.311-1.694,2.695-2.922,4.149-3.685c1.455-0.762,3.094-1.145,4.919-1.145c1.199,0,2.024,0.1,2.48,0.297
	c0.457,0.197,0.685,0.608,0.685,1.228c0,0.453-0.143,1.059-0.429,1.821c-0.285,0.762-0.74,1.821-1.367,3.177h1.452L434.23,149.603
	L434.23,149.603z M404.031,133.083c0.058,0,0.114-0.014,0.172-0.042c0.057-0.029,0.114-0.043,0.17-0.043
	c0.057,0,0.116-0.014,0.171-0.043c0.057-0.029,0.114-0.041,0.171-0.041c0.685-0.227,1.141-0.368,1.368-0.424
	c0.229-0.058,0.4-0.084,0.514-0.084c0.057,0,0.1,0,0.128,0c0.029,0,0.071,0,0.13,0c0.397,0,0.712,0.098,0.939,0.295
	c0.229,0.197,0.342,0.466,0.342,0.806c0,0.507-0.271,1.496-0.813,2.964c-0.541,1.468-1.468,3.784-2.779,6.947l-1.284,3.133
	l-1.367,3.135c-0.742,1.807-1.313,3.204-1.711,4.192c-0.4,0.988-0.771,1.878-1.113,2.67c-0.228,0.563-0.484,1.156-0.769,1.777
	c-0.287,0.622-0.6,1.384-0.941,2.288c-0.742,1.807-1.283,3.12-1.626,3.939c-0.341,0.819-0.656,1.539-0.939,2.161
	c0,0,0,0.014,0,0.042c0,0.028,0,0.042,0,0.042c-0.059,0.113-0.115,0.24-0.171,0.38c-0.058,0.141-0.115,0.27-0.174,0.382
	c-1.48,3.784-2.494,6.605-3.037,8.469c-0.54,1.867-0.81,3.445-0.81,4.745c0,1.075,0.226,1.92,0.684,2.542
	c0.457,0.622,1.055,0.932,1.796,0.932c0.684,0,1.682-0.338,2.994-1.017c1.312-0.676,2.68-1.553,4.106-2.626
	c0.456-0.338,0.913-0.692,1.367-1.059c0.457-0.367,0.914-0.749,1.37-1.144l-0.769-1.102c-1.37,1.074-2.354,1.807-2.951,2.202
	c-0.6,0.398-1.128,0.623-1.583,0.68c0,0-0.014,0-0.042,0c-0.027,0-0.071,0-0.128,0l0,0l0,0c-0.057,0-0.085,0-0.085,0l0,0
	c-0.4,0-0.742-0.157-1.026-0.467c-0.286-0.31-0.429-0.749-0.429-1.313c0-0.563,0.157-1.398,0.471-2.5
	c0.313-1.102,0.785-2.443,1.411-4.022c1.14-2.993,2.567-6.581,4.278-10.76c1.71-4.178,3.621-8.669,5.73-13.468
	c2.51-5.705,4.263-10.011,5.261-12.92c0.998-2.908,1.498-5.351,1.498-7.327c-0.17,0.111-0.343,0.211-0.514,0.296
	c-0.171,0.085-0.342,0.155-0.513,0.212c-0.114,0.056-0.229,0.113-0.342,0.169c-0.114,0.056-0.229,0.112-0.343,0.169
	c-0.969,0.452-2.124,0.931-3.465,1.439c-1.339,0.509-3.265,1.243-5.773,2.202L404.031,133.083L404.031,133.083z M385.896,177.98
	c-1.026,0.565-1.81,0.974-2.352,1.229c-0.542,0.254-1.012,0.409-1.411,0.465c-0.286,0.057-0.543-0.042-0.771-0.296
	s-0.344-0.523-0.344-0.805c0-0.451,0.145-1.087,0.428-1.906c0.286-0.819,0.971-2.443,2.055-4.871
	c0.514-1.301,0.87-2.161,1.069-2.585c0.199-0.423,0.357-0.777,0.47-1.059l0,0l0,0c0.059-0.113,0.1-0.211,0.129-0.297
	c0.027-0.082,0.071-0.182,0.126-0.294c-0.854,0.282-1.537,0.493-2.053,0.636c-0.513,0.141-0.968,0.238-1.367,0.296
	c-0.229,0.055-0.471,0.099-0.728,0.127c-0.258,0.028-0.528,0.042-0.813,0.042c1.425-1.751,2.466-3.375,3.122-4.873
	c0.657-1.495,0.984-2.922,0.984-4.278c0-1.071-0.144-1.904-0.427-2.498c-0.287-0.594-0.742-1.087-1.37-1.482
	c-0.285,1.187-0.583,2.301-0.898,3.345c-0.313,1.046-0.67,2.076-1.069,3.094c-0.342,0.79-0.728,1.594-1.155,2.413
	c-0.427,0.819-0.898,1.681-1.412,2.584c-0.854,1.525-1.838,3.021-2.951,4.49c-1.11,1.469-2.266,2.824-3.464,4.065
	c-1.482,1.582-2.938,2.881-4.363,3.896c-1.427,1.019-2.594,1.525-3.506,1.525c-0.742,0-1.341-0.294-1.797-0.89
	c-0.457-0.591-0.685-1.396-0.685-2.414c0-1.129,0.143-2.287,0.429-3.474c0.285-1.184,0.712-2.37,1.281-3.557
	c0.742-1.467,1.64-2.922,2.695-4.363c1.055-1.439,2.295-2.838,3.722-4.192c0.229-0.227,0.456-0.438,0.685-0.636
	c0.228-0.197,0.458-0.382,0.685-0.551c2.851-2.542,5.804-4.391,8.853-5.548c3.051-1.157,6.517-1.737,10.394-1.737
	c0.229,0,0.457,0,0.685,0c0.228,0,0.457,0,0.685,0c0.628,0.056,1.285,0.129,1.968,0.211c0.683,0.084,1.396,0.183,2.139,0.296
	c0.057-0.113,0.112-0.211,0.17-0.296c0.057-0.083,0.085-0.183,0.085-0.296c0.287-0.51,0.514-1.015,0.685-1.525
	c0.171-0.507,0.256-0.845,0.256-1.016c0-0.34-0.116-0.594-0.342-0.763c-0.228-0.169-0.569-0.254-1.026-0.254
	c-1.254,0-2.51,0.084-3.765,0.254c-1.254,0.169-2.51,0.395-3.764,0.678c-6.558,1.524-12.731,4.574-18.521,9.149
	c-5.789,4.574-9.653,9.46-11.592,14.656c-0.342,0.958-0.612,1.948-0.813,2.963c-0.198,1.018-0.297,2.004-0.297,2.966
	c0,1.187,0.242,2.104,0.728,2.753c0.482,0.65,1.182,0.974,2.094,0.974c1.598,0,3.651-0.734,6.159-2.202
	c2.509-1.469,5.104-3.446,7.785-5.929c1.084-0.96,2.139-1.964,3.165-3.01c1.026-1.043,2.024-2.16,2.994-3.345
	c-1.539,3.333-2.724,6.214-3.549,8.641c-0.827,2.428-1.299,4.319-1.411,5.675c2.45-0.62,4.717-1.356,6.8-2.202
	c2.082-0.849,3.835-1.807,5.261-2.881L385.896,177.98L385.896,177.98z M335.595,138.927c0.229-0.733,0.441-1.397,0.642-1.99
	c0.199-0.593,0.415-1.116,0.642-1.567c0.626-1.412,1.439-2.245,2.439-2.499c0.997-0.253,2.95-0.381,5.859-0.381
	c0.114,0,0.213,0,0.299,0s0.185,0,0.3,0c0.854,0,1.497,0,1.923,0c0.43,0,0.841,0,1.24,0c0.286,0,0.586,0.014,0.898,0.043
	c0.314,0.027,0.699,0.042,1.154,0.042c-0.683,0.734-1.295,1.412-1.838,2.033c-0.542,0.62-1.069,1.213-1.582,1.779
	c-0.116,0.056-0.201,0.127-0.256,0.211c-0.059,0.084-0.115,0.155-0.171,0.211c-1.199,1.242-2.568,2.64-4.107,4.194
	c-1.541,1.553-3.821,3.797-6.844,6.735l-2.053,1.864l-2.138,2.202c-2.053,1.976-3.322,3.204-3.807,3.685
	c-0.484,0.481-0.812,0.805-0.984,0.974c-0.057,0.058-0.128,0.127-0.213,0.211s-0.242,0.241-0.47,0.467l-7.358-7.117
	c0.286-0.563,0.571-1.155,0.854-1.779c0.286-0.62,0.542-1.3,0.771-2.033c0.684-1.751,1.384-3.756,2.094-6.016
	c0.713-2.258,1.47-4.912,2.268-7.962c0.057-0.282,0.116-0.521,0.171-0.719c0.057-0.198,0.116-0.381,0.171-0.551l0,0l0,0
	c0.116-0.509,0.272-1.115,0.471-1.82c0.199-0.707,0.528-1.935,0.984-3.685c-0.229,0.112-0.415,0.197-0.555,0.254
	c-0.142,0.056-0.215,0.113-0.215,0.169c-3.135,1.693-5.332,2.866-6.588,3.516c-1.252,0.648-2.309,1.172-3.165,1.566
	c-0.055,0-0.114,0.014-0.171,0.043c-0.055,0.028-0.114,0.042-0.17,0.042c-0.342,0.168-0.728,0.339-1.155,0.509
	c-0.427,0.168-0.956,0.394-1.582,0.676l0.683,1.356c1.311-0.509,2.268-0.862,2.866-1.059c0.598-0.197,1.126-0.298,1.583-0.298
	c0,0,0.014,0,0.041,0c0.029,0,0.044,0,0.044,0c0.456,0,0.799,0.114,1.025,0.34c0.229,0.226,0.342,0.537,0.342,0.932
	c0,0.056,0,0.099,0,0.127c0,0.027,0,0.069,0,0.126c-0.056,0.622-0.198,1.595-0.427,2.922c-0.228,1.327-0.569,2.811-1.025,4.448
	c0,0.113-0.016,0.211-0.044,0.295c-0.027,0.086-0.071,0.185-0.128,0.298c0,0.113-0.014,0.211-0.042,0.297
	c-0.027,0.083-0.071,0.182-0.128,0.295c-0.228,0.678-0.456,1.397-0.685,2.16c-0.228,0.764-0.57,1.795-1.027,3.095
	c-3.364-3.276-6.543-5.974-9.537-8.092c-2.994-2.117-5.946-3.74-8.854-4.87c-1.882-0.678-3.75-1.187-5.604-1.525
	c-1.852-0.339-3.749-0.508-5.688-0.508c-7.756,0-14.129,2.245-19.119,6.734s-7.485,10.18-7.485,17.068
	c0,7.965,2.523,14.558,7.571,19.782c5.048,5.224,11.392,7.836,19.034,7.836c3.252,0,6.472-0.507,9.666-1.525
	c3.193-1.016,6.274-2.512,9.239-4.49c0.059-0.055,0.115-0.099,0.172-0.127c0.057-0.028,0.087-0.042,0.087-0.042
	c0.397-0.284,0.795-0.565,1.196-0.847c0.398-0.282,0.77-0.536,1.112-0.761c1.483-1.074,3.01-2.317,4.577-3.729
	c1.568-1.411,3.521-3.247,5.86-5.506l5.131-5.168c0.345,0.34,0.685,0.678,1.028,1.017c0.341,0.338,0.683,0.678,1.026,1.018
	c0.855,0.789,1.754,1.622,2.695,2.496c0.939,0.877,2.039,1.965,3.293,3.264c2.165,2.203,3.935,3.968,5.303,5.293
	c1.37,1.328,2.623,2.556,3.764,3.687c0.057,0.057,0.1,0.1,0.128,0.125c0.028,0.032,0.071,0.072,0.128,0.129
	c0.856,0.791,1.769,1.638,2.738,2.541c0.97,0.904,2.112,1.949,3.423,3.134c0.112-0.112,0.226-0.211,0.342-0.294
	c0.112-0.084,0.226-0.156,0.342-0.213c0.057-0.056,0.1-0.099,0.129-0.128c0.027-0.028,0.041-0.041,0.041-0.041
	c0.4-0.395,0.854-0.833,1.37-1.314c0.512-0.479,1.339-1.256,2.48-2.329c0.969-0.96,1.738-1.708,2.309-2.244
	c0.569-0.537,1.085-1.032,1.539-1.483c0-0.057,0.014-0.084,0.044-0.084c0.028,0,0.041-0.029,0.041-0.084
	c0.174-0.113,0.314-0.242,0.43-0.383c0.112-0.141,0.226-0.269,0.342-0.382l-1.114-1.015c-1.425,1.411-2.48,2.371-3.165,2.88
	c-0.685,0.509-1.283,0.819-1.796,0.932c-0.114,0-0.214,0-0.299,0s-0.156,0-0.213,0c0,0-0.014,0-0.042,0c-0.029,0-0.071,0-0.128,0
	c-0.628-0.058-1.355-0.38-2.183-0.974c-0.826-0.593-2.065-1.652-3.72-3.179l-16.424-15.925l0.256-0.34l0.684-0.677
	c0.799-0.789,2.24-2.188,4.321-4.193c2.08-2.005,4.604-4.448,7.571-7.326c1.882-1.808,4.29-4.125,7.227-6.947
	c2.937-2.824,6.744-6.552,11.421-11.184c-0.571,0.058-1.114,0.085-1.626,0.085c-0.513,0-1.025,0.029-1.541,0.084
	c-0.74,0-1.511,0-2.31,0c-0.798,0-1.709,0-2.738,0c-0.285,0-0.568,0-0.854,0s-0.571,0-0.855,0c-1.427,0-2.994-0.013-4.706-0.042
	c-1.71-0.028-4.078-0.069-7.1-0.127c-0.057,0.227-0.112,0.453-0.171,0.679c-0.057,0.225-0.115,0.452-0.171,0.677
	c-0.457,1.581-0.955,3.191-1.496,4.829c-0.542,1.639-1.126,3.36-1.754,5.167H335.595L335.595,138.927z M322.764,160.699
	l-6.246-6.015c-1.767,3.334-3.85,6.2-6.244,8.599c-2.395,2.399-4.876,4.166-7.442,5.293c-0.913,0.397-1.839,0.707-2.781,0.933
	c-0.941,0.226-1.868,0.338-2.779,0.338c-2.053,0-3.75-0.451-5.091-1.354c-1.34-0.903-2.009-2.063-2.009-3.474
	c0-0.453,0.071-0.932,0.212-1.439c0.142-0.511,0.415-1.103,0.813-1.781c0.286,1.865,1.055,3.276,2.311,4.236
	c1.254,0.961,2.966,1.441,5.133,1.441c3.193,0,6.145-1.256,8.854-3.771c2.708-2.511,5.062-6.17,7.056-10.97
	c-5.076-4.913-9.41-8.668-13.003-11.267c-3.592-2.598-7.042-4.377-10.351-5.337c-1.254-0.338-2.509-0.593-3.765-0.763
	c-1.254-0.169-2.537-0.254-3.849-0.254c-6.216,0-11.348,1.92-15.398,5.761c-4.049,3.84-6.074,8.726-6.074,14.655
	c0,6.719,2.752,12.495,8.256,17.323c5.503,4.83,12.047,7.245,19.633,7.245c1.939,0,3.763-0.141,5.474-0.425
	c1.711-0.282,3.421-0.762,5.133-1.439c2.736-1.074,5.588-2.754,8.553-5.042c2.967-2.286,6.474-5.434,10.521-9.443L322.764,160.699
	L322.764,160.699z M229.862,133.083c0.057,0,0.115-0.014,0.171-0.042c0.057-0.029,0.115-0.043,0.171-0.043
	c0.057,0,0.115-0.014,0.171-0.043c0.057-0.029,0.114-0.041,0.171-0.041c0.684-0.227,1.14-0.368,1.369-0.424
	c0.228-0.058,0.399-0.084,0.513-0.084c0.057,0,0.1,0,0.128,0s0.071,0,0.128,0c0.399,0,0.713,0.098,0.941,0.295
	c0.229,0.197,0.342,0.466,0.342,0.806c0,0.507-0.27,1.496-0.812,2.964c-0.542,1.468-1.47,3.784-2.781,6.947l-1.284,3.133
	l-1.369,3.135c-0.741,1.807-1.311,3.204-1.71,4.192c-0.399,0.988-0.77,1.878-1.113,2.67c-0.228,0.563-0.484,1.156-0.77,1.777
	c-0.286,0.622-0.6,1.384-0.94,2.288c-0.742,1.807-1.284,3.12-1.625,3.939c-0.343,0.819-0.656,1.539-0.942,2.161c0,0,0,0.014,0,0.042
	c0,0.028,0,0.042,0,0.042c-0.057,0.113-0.114,0.24-0.171,0.38c-0.057,0.141-0.115,0.27-0.171,0.382
	c-1.483,3.784-2.495,6.605-3.037,8.469c-0.542,1.867-0.813,3.445-0.813,4.745c0,1.075,0.228,1.92,0.684,2.542
	c0.457,0.622,1.055,0.932,1.797,0.932c0.685,0,1.682-0.338,2.994-1.017c1.312-0.676,2.68-1.553,4.107-2.626
	c0.456-0.338,0.912-0.692,1.368-1.059c0.456-0.367,0.913-0.749,1.369-1.144l-0.771-1.102c-1.369,1.074-2.353,1.807-2.951,2.202
	c-0.599,0.398-1.126,0.623-1.583,0.68c0,0-0.013,0-0.042,0c-0.028,0-0.071,0-0.128,0l0,0l0,0c-0.058,0-0.085,0-0.085,0l0,0
	c-0.399,0-0.742-0.157-1.027-0.467c-0.285-0.31-0.427-0.749-0.427-1.313c0-0.563,0.156-1.398,0.47-2.5
	c0.314-1.102,0.784-2.443,1.412-4.022c1.141-2.993,2.567-6.581,4.277-10.76c1.712-4.178,3.622-8.669,5.732-13.468
	c2.51-5.705,4.263-10.011,5.261-12.92c0.998-2.908,1.497-5.351,1.497-7.327c-0.171,0.111-0.342,0.211-0.513,0.296
	c-0.171,0.085-0.342,0.155-0.514,0.212c-0.114,0.056-0.227,0.113-0.341,0.169c-0.114,0.056-0.229,0.112-0.342,0.169
	c-0.97,0.452-2.125,0.931-3.465,1.439c-1.34,0.509-3.265,1.243-5.774,2.202L229.862,133.083L229.862,133.083z M214.293,166.036
	c-1.311,3.22-2.895,6.042-4.747,8.472c-1.854,2.427-3.779,4.234-5.775,5.42c-0.799,0.453-1.583,0.806-2.353,1.06
	c-0.771,0.254-1.526,0.38-2.267,0.38c-1.141,0-2.024-0.368-2.652-1.101c-0.628-0.734-0.941-1.779-0.941-3.135
	c0-1.411,0.199-2.95,0.598-4.616c0.4-1.667,0.971-3.345,1.712-5.04c0.569-1.413,1.254-2.797,2.053-4.15
	c0.798-1.356,1.682-2.656,2.652-3.899c0.798-1.016,1.639-1.935,2.523-2.753s1.782-1.509,2.696-2.075
	c0.854-0.565,1.725-1.002,2.608-1.314c0.884-0.308,1.726-0.465,2.524-0.465c0.799,0,1.426,0.168,1.882,0.509
	c0.458,0.338,0.684,0.817,0.684,1.439c0,0.058,0,0.128,0,0.213c0,0.084,0,0.155,0,0.211c-0.227,1.695-1.439,3.262-3.635,4.701
	c-2.195,1.441-4.577,2.218-7.143,2.33c-0.114,0-0.213,0-0.299,0c-0.085,0-0.157,0-0.214,0c-0.057,0-0.1,0-0.129,0
	c-0.027,0-0.071,0-0.128,0c-0.342,0-0.698-0.015-1.069-0.042c-0.37-0.03-0.869-0.07-1.496-0.127c0.284,0.733,0.641,1.272,1.069,1.61
	c0.427,0.338,0.983,0.508,1.667,0.508c0.627,0,1.439-0.142,2.438-0.423c0.998-0.283,2.04-0.651,3.123-1.102
	c0.798-0.282,1.583-0.62,2.352-1.017c0.77-0.395,1.468-0.791,2.096-1.186c0.855-0.564,1.669-1.2,2.438-1.906
	c0.771-0.707,1.441-1.427,2.01-2.163c0.628-0.79,1.113-1.566,1.455-2.327c0.342-0.765,0.514-1.428,0.514-1.992
	c0-0.79-0.287-1.385-0.856-1.779c-0.571-0.395-1.369-0.592-2.396-0.592c-1.255,0-2.652,0.253-4.192,0.763
	c-1.54,0.507-3.137,1.185-4.791,2.034c-0.912,0.504-1.824,1.071-2.737,1.693c-0.913,0.62-1.797,1.27-2.652,1.948
	c-2.396,1.978-4.505,4.277-6.33,6.903s-3.251,5.323-4.278,8.091c-0.512,1.411-0.913,2.81-1.197,4.193
	c-0.285,1.384-0.429,2.725-0.429,4.024c0,1.694,0.443,3.021,1.327,3.981c0.884,0.96,2.067,1.44,3.55,1.44
	c1.653,0,3.593-0.565,5.817-1.696c2.224-1.127,4.591-2.822,7.099-5.082c0.57-0.453,1.098-0.917,1.583-1.397
	c0.486-0.48,0.956-0.974,1.412-1.483c1.083-1.298,1.925-2.556,2.523-3.77c0.599-1.213,0.898-2.302,0.898-3.262
	c0-0.113,0-0.226,0-0.338s-0.027-0.226-0.085-0.338c0-0.171-0.042-0.37-0.128-0.594
	C214.592,166.571,214.465,166.318,214.293,166.036L214.293,166.036z M197.868,150.025h-5.902c0.115-0.225,0.186-0.396,0.214-0.507
	c0.028-0.113,0.071-0.199,0.128-0.255l0,0l0,0c0.058-0.169,0.128-0.38,0.214-0.634c0.085-0.255,0.3-0.778,0.642-1.568l0.428-0.932
	c0.398-0.961,0.698-1.682,0.897-2.161c0.2-0.48,0.385-0.89,0.556-1.228c0-0.056,0.015-0.114,0.043-0.17
	c0.029-0.056,0.042-0.113,0.042-0.17c0,0,0.015-0.028,0.043-0.085c0.028-0.056,0.043-0.113,0.043-0.168
	c-0.343,0.056-0.671,0.127-0.984,0.212c-0.313,0.083-0.642,0.126-0.984,0.126c-0.342,0.057-0.67,0.1-0.984,0.126
	c-0.314,0.029-0.642,0.043-0.984,0.043c-0.057,0-0.171,0-0.342,0c-0.172,0-0.343-0.029-0.514-0.084
	c-0.456,1.186-0.869,2.189-1.24,3.007c-0.37,0.818-0.756,1.509-1.155,2.077c-0.685,1.129-1.455,1.807-2.31,2.033
	c-0.856,0.226-2.196,0.338-4.02,0.338l-0.6,1.272h5.475l-0.171,0.338l-0.086,0.254l-0.172,0.338
	c-0.113,0.395-0.555,1.485-1.325,3.262c-0.77,1.779-1.726,3.939-2.866,6.482l-1.455,3.217l-2.908,6.61
	c-0.57,1.298-1.069,2.428-1.497,3.387c-0.427,0.96-0.727,1.667-0.898,2.118c-0.341,0.905-0.613,1.71-0.813,2.415
	c-0.199,0.707-0.299,1.284-0.299,1.737c0,0.734,0.286,1.328,0.856,1.779c0.57,0.453,1.34,0.678,2.309,0.678
	c0.799,0,1.74-0.155,2.822-0.465c1.084-0.312,2.225-0.75,3.422-1.313c0.798-0.396,1.611-0.833,2.438-1.313
	c0.827-0.482,1.583-0.974,2.267-1.483l-0.599-1.017c-0.229,0.169-0.485,0.324-0.77,0.465c-0.285,0.143-0.542,0.296-0.77,0.467
	c-0.913,0.451-1.783,0.832-2.61,1.141c-0.826,0.313-1.469,0.469-1.925,0.469c-0.57,0-1.026-0.185-1.368-0.552
	c-0.342-0.368-0.513-0.834-0.513-1.398c0-0.621,0.199-1.482,0.599-2.584c0.4-1.101,1.227-3.007,2.481-5.718
	c0.798-1.865,1.554-3.556,2.267-5.082c0.712-1.525,1.297-2.825,1.753-3.898c1.369-3.105,2.382-5.379,3.038-6.82
	c0.654-1.438,1.182-2.612,1.582-3.514h5.903L197.868,150.025L197.868,150.025z M176.054,153.837c0.171-0.507,0.299-0.89,0.385-1.143
	c0.085-0.254,0.128-0.467,0.128-0.636c0-0.057,0-0.099,0-0.127c0-0.026,0-0.07,0-0.126c0-0.451-0.171-0.833-0.513-1.144
	c-0.343-0.311-0.8-0.466-1.368-0.466c-1.199,0-2.568,0.197-4.107,0.594c-1.541,0.396-3.137,0.959-4.792,1.696
	c-0.968,0.451-1.938,0.93-2.908,1.438c-0.969,0.509-1.882,1.046-2.737,1.61c-3.08,2.034-5.774,4.391-8.085,7.075
	c-2.308,2.681-4.063,5.434-5.26,8.257c-0.514,1.242-0.912,2.5-1.198,3.769c-0.285,1.271-0.427,2.5-0.427,3.687
	c0,1.693,0.527,3.107,1.583,4.236c1.054,1.129,2.38,1.693,3.977,1.693c1.825,0,4.049-0.733,6.672-2.202
	c2.624-1.469,5.362-3.502,8.212-6.1c0.628-0.566,1.227-1.145,1.797-1.737c0.57-0.592,1.113-1.2,1.625-1.822
	c1.654-1.978,2.909-3.924,3.765-5.846c0.855-1.92,1.283-3.755,1.283-5.506c0-1.469-0.442-2.725-1.326-3.77
	c-0.883-1.045-1.981-1.568-3.293-1.568c-0.799,0-1.654,0.199-2.566,0.594c-0.913,0.396-1.94,1.044-3.08,1.948
	c-1.254,0.959-2.181,1.906-2.781,2.839c-0.598,0.93-0.897,1.877-0.897,2.837c0,0.057,0,0.099,0,0.126c0,0.029,0,0.071,0,0.127
	c0,0.169,0.028,0.338,0.085,0.507c0.057,0.173,0.114,0.396,0.171,0.68c0.969-2.205,1.996-3.855,3.08-4.958
	c1.083-1.1,2.167-1.651,3.251-1.651c0.684,0,1.253,0.297,1.711,0.889c0.456,0.592,0.684,1.313,0.684,2.16
	c0,1.354-0.272,2.852-0.813,4.49c-0.542,1.639-1.326,3.276-2.352,4.915c-0.229,0.451-0.486,0.889-0.771,1.313
	c-0.285,0.422-0.57,0.833-0.855,1.228c-0.513,0.68-1.026,1.328-1.54,1.95c-0.512,0.622-1.026,1.185-1.539,1.694
	c-1.255,1.298-2.496,2.286-3.721,2.964c-1.227,0.678-2.325,1.016-3.293,1.016c-1.199,0-2.196-0.437-2.994-1.314
	c-0.799-0.874-1.198-1.988-1.198-3.345c0-1.13,0.171-2.4,0.513-3.812c0.342-1.413,0.826-2.854,1.455-4.322
	c0.569-1.411,1.226-2.793,1.966-4.15c0.742-1.356,1.541-2.568,2.395-3.643c1.882-2.429,4.15-4.234,6.801-5.421
	c2.652-1.186,5.688-1.779,9.11-1.779c0.57,0,1.155,0.014,1.754,0.044C174.642,153.655,175.313,153.724,176.054,153.837
	L176.054,153.837z M103.341,143.333c0.399-1.242,0.769-2.5,1.112-3.771c0.341-1.271,0.655-2.583,0.941-3.939
	c0.398-1.694,0.756-3.403,1.068-5.125c0.314-1.722,0.556-3.347,0.728-4.871c-0.799,0.339-1.469,0.635-2.011,0.89
	c-0.541,0.253-1.097,0.493-1.667,0.719c-0.058,0-0.115,0.015-0.171,0.043c-0.058,0.026-0.115,0.042-0.171,0.042
	c-0.286,0.112-0.557,0.225-0.813,0.338c-0.256,0.114-0.527,0.227-0.813,0.34c-1.938,0.791-3.178,1.299-3.72,1.524
	c-0.542,0.227-0.956,0.396-1.241,0.509c-0.114,0.056-0.243,0.113-0.384,0.169c-0.143,0.056-0.328,0.142-0.557,0.253l0.514,1.356
	c0.855-0.395,1.525-0.663,2.01-0.804c0.485-0.141,0.926-0.24,1.326-0.297c0.114,0,0.213,0,0.299,0c0.086,0,0.157,0,0.214,0
	c0.457,0,0.784,0.127,0.984,0.381c0.199,0.253,0.299,0.635,0.299,1.143c0,0.453-0.113,1.272-0.342,2.458
	c-0.229,1.186-0.484,2.428-0.77,3.728c-0.115,0.451-0.228,0.902-0.342,1.354c-0.115,0.452-0.229,0.904-0.342,1.356
	c-0.057,0.338-0.129,0.649-0.214,0.931c-0.085,0.282-0.186,0.564-0.299,0.847c-1.026-0.114-2.253-0.24-3.678-0.38
	c-1.426-0.142-3.422-0.354-5.989-0.636c-2.737-0.339-4.875-0.622-6.415-0.848c-1.539-0.225-2.881-0.422-4.021-0.593
	c-0.171,0-0.342-0.014-0.512-0.042c-0.171-0.028-0.342-0.07-0.513-0.127c-0.059,0.113-0.115,0.227-0.172,0.34
	c-0.056,0.111-0.085,0.197-0.085,0.253c-0.285,0.734-0.485,1.271-0.599,1.609s-0.228,0.622-0.342,0.848c0,0.056,0,0.085,0,0.085l0,0
	c-0.114,0.168-0.214,0.351-0.299,0.55c-0.085,0.197-0.186,0.466-0.299,0.805c2.852,0.453,5.019,1.553,6.501,3.304
	c1.482,1.75,2.224,4.037,2.224,6.862c0,0.112,0,0.241,0,0.38c0,0.141,0,0.296,0,0.465c-0.056,0.678-0.142,1.385-0.256,2.118
	c-0.114,0.736-0.285,1.525-0.513,2.374c-2.794-3.727-5.859-7.019-9.196-9.871c-3.336-2.851-6.715-5.124-10.137-6.819
	c-2.225-1.072-4.421-1.892-6.587-2.456c-2.168-0.565-4.278-0.848-6.331-0.848c-6.273,0-11.449,1.934-15.527,5.804
	c-4.077,3.866-6.115,8.768-6.115,14.697c0,6.665,2.494,12.268,7.484,16.816c4.99,4.546,11.134,6.818,18.435,6.818
	c0.741,0,1.498-0.014,2.267-0.042c0.771-0.028,1.525-0.099,2.267-0.212c8.498-1.13,16.582-5.04,24.252-11.732
	s13.302-14.866,16.895-24.523l7.443,0.676c-1.255,3.389-2.195,6.621-2.823,9.7c-0.628,3.079-0.941,5.86-0.941,8.345
	c0,5.535,1.554,9.869,4.662,13.003c3.108,3.135,7.399,4.701,12.874,4.701c3.136,0,5.917-0.521,8.34-1.566
	c2.425-1.046,4.692-2.725,6.801-5.041c0.571-0.622,1.126-1.256,1.669-1.906c0.541-0.648,1.041-1.312,1.497-1.988
	c1.026-1.527,1.838-2.995,2.437-4.407c0.6-1.413,0.899-2.626,0.899-3.642c0-0.396-0.029-0.749-0.086-1.059
	c-0.057-0.313-0.171-0.607-0.342-0.889c-0.114-0.284-0.271-0.551-0.471-0.807c-0.199-0.254-0.442-0.55-0.727-0.888
	c-0.057,5.365-1.726,9.699-5.004,13.003s-7.572,4.957-12.874,4.957c-4.848,0-8.498-1.341-10.951-4.025
	c-2.452-2.684-3.678-6.677-3.678-11.986c0-1.356,0.1-2.852,0.3-4.491c0.2-1.636,0.47-3.303,0.813-4.997
	c0.17-0.96,0.384-1.934,0.64-2.922c0.258-0.988,0.528-1.934,0.814-2.837c0.457,0,0.913,0.014,1.369,0.042
	c0.456,0.026,0.884,0.07,1.283,0.126c0.855,0,1.753,0.014,2.694,0.042c0.941,0.029,1.982,0.042,3.123,0.042
	c5.246,0,9.681-0.38,13.302-1.143s6.972-2.019,10.051-3.77c2.396-1.356,4.52-2.951,6.374-4.787c1.853-1.835,3.265-3.713,4.233-5.633
	c0.514-0.959,0.898-1.907,1.156-2.837c0.256-0.932,0.384-1.822,0.384-2.668c0-2.259-1.012-4.054-3.037-5.38
	c-2.025-1.328-4.748-1.991-8.169-1.991c-1.369,0-2.752,0.099-4.149,0.297c-1.397,0.197-2.78,0.465-4.148,0.804
	c-3.194,0.791-6.303,2.004-9.326,3.644c-3.022,1.638-5.76,3.557-8.212,5.76c-1.768,1.581-3.379,3.402-4.833,5.464
	c-1.454,2.06-2.837,4.447-4.149,7.158L103.341,143.333L103.341,143.333z M97.524,147.483l-14.2-1.525
	c1.083,1.073,1.867,2.288,2.352,3.644c0.485,1.354,0.728,2.962,0.728,4.828c0,1.469-0.186,3.347-0.557,5.633
	c-0.37,2.286-0.869,4.645-1.497,7.074c-0.057,0.113-0.1,0.211-0.129,0.296c-0.027,0.086-0.042,0.185-0.042,0.297
	c-6.616-8.414-12.875-14.67-18.778-18.764c-5.903-4.094-11.534-6.142-16.895-6.142c-4.449,0-8.17,1.44-11.164,4.319
	c-2.995,2.881-4.491,6.412-4.491,10.589c0,6.665,2.523,12.143,7.57,16.434c5.047,4.294,11.507,6.439,19.375,6.439
	c8.841,0,16.325-2.697,22.456-8.09C88.384,167.123,93.475,158.779,97.524,147.483L97.524,147.483z M114.718,144.35
	c0.399,0.057,0.799,0.097,1.198,0.125c0.398,0.03,0.798,0.044,1.197,0.044c1.026,0.057,2.109,0.099,3.25,0.126
	c1.14,0.029,2.539,0.043,4.192,0.043c5.132,0,9.31-0.268,12.531-0.805c3.223-0.537,6.145-1.426,8.769-2.668
	c2.224-1.073,4.034-2.471,5.432-4.192c1.397-1.723,2.181-3.516,2.353-5.379c0-0.057,0-0.128,0-0.212c0-0.085,0-0.184,0-0.297
	c0-2.315-1.027-4.179-3.08-5.591c-2.052-1.412-4.733-2.119-8.041-2.119c-0.342,0-0.685,0-1.026,0c-0.342,0-0.685,0.028-1.026,0.085
	c-3.194,0.227-6.288,1.003-9.283,2.33c-2.993,1.327-5.602,3.064-7.827,5.21c-0.855,0.79-1.654,1.638-2.396,2.542
	c-0.741,0.903-1.455,1.92-2.139,3.049c-0.626,1.017-1.283,2.146-1.967,3.388C116.173,141.271,115.459,142.711,114.718,144.35
	L114.718,144.35z M379.463,75.057v6.945c61.111,8.051,110.064,24.47,134.813,45.147C491.096,103.325,441.752,84.297,379.463,75.057
	L379.463,75.057z M208.186,82.024v-6.942c-62.206,9.249-111.471,28.267-134.628,52.067
	C98.279,106.493,147.159,90.083,208.186,82.024L208.186,82.024z M514.272,188.64c-24.747,20.676-73.7,37.091-134.809,45.143v6.945
	C441.751,231.486,491.093,212.461,514.272,188.64L514.272,188.64z M208.186,240.704v-6.943
	c-61.027-8.06-109.905-24.464-134.627-45.12C96.717,212.437,145.981,231.456,208.186,240.704L208.186,240.704z M334.513,32.154
	c-1.749-0.141-3.456-0.274-5.118-0.394l-0.503-0.038l-0.229-0.449c-0.038-0.079-0.087-0.169-0.144-0.275l-0.005-0.003
	c-0.051-0.094-0.103-0.187-0.157-0.278l-0.285-0.487l-0.324-0.423c-1.047-1.366-2.233-2.293-3.505-2.869
	c-1.413-0.641-2.95-0.854-4.525-0.762l-1.079,0.062l0.15-1.064l0.146-1.048l0,0c0.25-1.8,0.281-3.474-0.114-5.016
	c-0.388-1.505-1.196-2.908-2.627-4.213c-1.329-1.21-2.762-1.903-4.259-2.197c-1.523-0.299-3.128-0.195-4.778,0.189l-0.799,0.186
	l-0.251-0.777c-0.607-1.876-1.289-3.647-2.309-5.201c-0.998-1.518-2.338-2.855-4.285-3.917c-0.857-0.468-1.756-0.82-2.676-1.053
	c-0.937-0.238-1.904-0.36-2.883-0.362l-0.228,0l-0.119,0.007h-0.025c-0.92,0.024-1.836,0.156-2.727,0.396
	c-0.876,0.234-1.726,0.574-2.532,1.013c-1.949,1.063-3.29,2.399-4.288,3.917c-1.019,1.554-1.702,3.325-2.308,5.201l-0.251,0.777
	l-0.799-0.186c-1.649-0.384-3.257-0.488-4.778-0.189c-1.498,0.294-2.929,0.987-4.259,2.197c-1.434,1.305-2.241,2.708-2.627,4.213
	c-0.396,1.542-0.364,3.215-0.115,5.014l0,0l0.146,1.05l0.15,1.064l-1.081-0.062c-1.574-0.092-3.112,0.122-4.523,0.762
	c-1.271,0.577-2.458,1.503-3.506,2.869l-0.306,0.399l-0.254,0.334l-0.422,0.015c-2.074,0.081-4.175,0.17-6.303,0.272
	c-2.063,0.098-4.149,0.209-6.261,0.333l-0.317,0.02l-0.255-0.182c-1.201-0.853-2.541-1.368-3.936-1.604
	c-1.572-0.267-3.223-0.192-4.844,0.135l-0.88,0.178l-0.173-0.877c-0.319-1.625-0.879-3.165-1.736-4.511
	c-0.77-1.209-1.783-2.269-3.084-3.101l0.001-0.002l-1.935-1.239l-2.312-0.146c-1.162-0.074-2.331,0.076-3.472,0.397
	c-1.26,0.354-2.492,0.918-3.657,1.626l-0.488,0.298l-0.475-0.318c-1.205-0.803-2.511-1.439-3.883-1.928
	c-1.502-0.537-3.1-0.908-4.739-1.144c-2.421-0.348-4.79-0.231-6.795,0.649c-1.691,0.741-3.147,2.044-4.182,4.091
	c-0.788,1.558-1.063,3.196-0.908,4.792c0.165,1.69,0.819,3.342,1.862,4.812l0.231,0.316h-0.001c0.154,0.209,0.31,0.42,0.453,0.639
	l0.15,0.231l0.756,1.16l-1.384,0.19C142.176,43.676,91.891,59.968,56.476,81.469c-34.37,20.865-54.69,46.611-54.69,74.423
	c0,69.468,126.139,125.806,281.68,125.806c77.89,0,148.403-14.153,199.433-37.032c50.813-22.781,82.248-54.174,82.248-88.774
	c0-26.193-18.025-50.554-48.838-70.731c-31.88-20.879-77.409-37.254-130.833-46.549l-1.234-0.214l0.609-1.083
	c0.297-0.535,0.61-1.072,0.938-1.611c0.337-0.556,0.682-1.104,1.034-1.645c0.141-0.22,0.299-0.433,0.454-0.641
	c0.065-0.086,0.131-0.175,0.221-0.302c1.047-1.472,1.704-3.128,1.87-4.823c0.155-1.596-0.12-3.234-0.909-4.792
	c-1.033-2.047-2.488-3.349-4.181-4.091c-2.007-0.88-4.375-0.997-6.795-0.649c-1.641,0.235-3.237,0.606-4.738,1.142
	c-1.375,0.491-2.682,1.126-3.887,1.93l-0.475,0.318l-0.487-0.298c-1.166-0.708-2.397-1.272-3.655-1.626
	c-1.144-0.322-2.312-0.471-3.473-0.397l-2.306,0.145l-1.945,1.246l0,0c-1.297,0.831-2.311,1.891-3.078,3.099
	c-0.855,1.347-1.417,2.886-1.737,4.511l-0.172,0.877l-0.881-0.178c-1.714-0.345-3.46-0.409-5.117-0.084
	c-1.461,0.288-2.85,0.883-4.078,1.864c-0.247,0.198-0.457,0.373-0.631,0.527c-0.172,0.153-0.338,0.313-0.501,0.484l-0.296,0.308
	l-0.43-0.039C338.095,32.451,336.387,32.306,334.513,32.154z"/>
</svg>
